<svg xmlns="http://www.w3.org/2000/svg" viewBox="0 0 30 30">
  <defs>
    <style>
      .cls-1 {
        fill: #376080;
      }

      .cls-2 {
        fill: #fff;
      }
    </style>
  </defs>
  <g id="instagram" transform="translate(-867 -31)">
    <circle id="Ellipse_10" data-name="Ellipse 10" class="cls-1" cx="15" cy="15" r="15" transform="translate(867 31)"/>
    <g id="Group_14" data-name="Group 14" transform="translate(874 38)">
      <path id="Path_5" data-name="Path 5" class="cls-2" d="M11.718,0H4.471A4.47,4.47,0,0,0,0,4.471v7.257A4.476,4.476,0,0,0,4.471,16.2h7.257A4.476,4.476,0,0,0,16.2,11.727V4.471A4.49,4.49,0,0,0,11.718,0Zm3.035,11.718a3.036,3.036,0,0,1-3.035,3.035H4.471a3.036,3.036,0,0,1-3.035-3.035V4.471A3.036,3.036,0,0,1,4.471,1.436h7.257a3.036,3.036,0,0,1,3.035,3.035l-.01,7.247Z"/>
      <path id="Path_6" data-name="Path 6" class="cls-2" d="M45.164,41a4.169,4.169,0,1,0,4.184,4.164A4.167,4.167,0,0,0,45.164,41Zm0,6.9A2.733,2.733,0,1,1,47.9,45.174,2.744,2.744,0,0,1,45.164,47.9Z" transform="translate(-37.075 -37.075)"/>
      <path id="Path_7" data-name="Path 7" class="cls-2" d="M119.953,28.3a1.092,1.092,0,0,0-.747.306,1.034,1.034,0,0,0-.306.747,1.092,1.092,0,0,0,.306.747,1.074,1.074,0,0,0,.747.306,1.092,1.092,0,0,0,.747-.306,1.034,1.034,0,0,0,.306-.747,1.092,1.092,0,0,0-.306-.747A1.034,1.034,0,0,0,119.953,28.3Z" transform="translate(-107.517 -25.591)"/>
    </g>
  </g>
</svg>
