<svg xmlns="http://www.w3.org/2000/svg" viewBox="0 0 30 30">
  <defs>
    <style>
      .cls-1 {
        fill: #376080;
      }

      .cls-2 {
        fill: #fff;
      }
    </style>
  </defs>
  <g id="vk" transform="translate(-775 -31)">
    <circle id="Ellipse_10" data-name="Ellipse 10" class="cls-1" cx="15" cy="15" r="15" transform="translate(775 31)"/>
    <g id="Group_12" data-name="Group 12" transform="translate(781.016 41.995)">
      <g id="Group_12-2" data-name="Group 12" transform="translate(-0.016 -0.026)">
        <path id="Path_3" data-name="Path 3" class="cls-2" d="M16.508,8.453a7.337,7.337,0,0,0-1.656-1.909c-1.391-1.291-1.2-1.082.475-3.322,1.026-1.369,1.435-2.2,1.3-2.55s-.872-.254-.872-.254L13.252.429a.6.6,0,0,0-.32.055.7.7,0,0,0-.221.265A14.269,14.269,0,0,1,11.784,2.7c-1.126,1.9-1.567,2-1.755,1.887-.419-.276-.32-1.1-.32-1.689,0-1.832.276-2.6-.541-2.8A4.395,4.395,0,0,0,8-.023a5.334,5.334,0,0,0-2.075.21C5.637.33,5.416.639,5.548.65a1.107,1.107,0,0,1,.74.375,2.448,2.448,0,0,1,.243,1.137s.143,2.163-.342,2.428C5.857,4.778,5.394,4.4,4.4,2.681A16.524,16.524,0,0,1,3.506.827.789.789,0,0,0,3.3.551.994.994,0,0,0,2.91.4L.526.407A.814.814,0,0,0,.041.573C-.081.716.03.992.03.992A27.14,27.14,0,0,0,4,7.548a5.715,5.715,0,0,0,4.139,1.9h.993a.84.84,0,0,0,.453-.2.71.71,0,0,0,.132-.441s-.022-1.336.6-1.534,1.4,1.291,2.23,1.865a1.6,1.6,0,0,0,1.1.342l2.23-.033C15.89,9.447,17.06,9.37,16.508,8.453Z" transform="translate(0.016 0.026)"/>
      </g>
    </g>
  </g>
</svg>
