<svg xmlns="http://www.w3.org/2000/svg" viewBox="0 0 30 30">
  <defs>
    <style>
      .cls-1 {
        fill: #376080;
      }

      .cls-2 {
        fill: #fff;
      }
    </style>
  </defs>
  <g id="youtube" transform="translate(-913 -31)">
    <circle id="Ellipse_10" data-name="Ellipse 10" class="cls-1" cx="15" cy="15" r="15" transform="translate(913 31)"/>
    <path id="Path_3" data-name="Path 3" class="cls-2" d="M0,5.569c.04-.8.081-1.593.135-2.389a7.511,7.511,0,0,1,.209-1.4A1.914,1.914,0,0,1,1.856.31,9.092,9.092,0,0,1,3,.155C3.631.108,4.266.074,4.9.047c.317-.013.634-.02.945-.027C6.392.013,6.939,0,7.479,0c.7,0,1.39,0,2.079.013.513.007,1.033.02,1.546.04.871.034,1.735.074,2.6.189a2.174,2.174,0,0,1,1.309.594,2.146,2.146,0,0,1,.574,1.134,14.043,14.043,0,0,1,.223,1.991c.02.4.034.81.047,1.208A19.061,19.061,0,0,1,15.8,7.229c-.034.533-.094,1.066-.155,1.6a2.7,2.7,0,0,1-.324,1.087,1.974,1.974,0,0,1-1.384.952,14.552,14.552,0,0,1-1.8.182c-.526.027-1.053.047-1.579.067-.709.02-1.411.034-2.119.04s-1.4,0-2.1-.013-1.384-.034-2.079-.067S2.875,11,2.187,10.908a2.2,2.2,0,0,1-1.323-.6A2.165,2.165,0,0,1,.3,9.18,14.043,14.043,0,0,1,.074,7.188c-.02-.4-.034-.81-.047-1.215-.007-.135,0-.263,0-.4A.041.041,0,0,0,0,5.569ZM6.325,7.938c1.384-.79,2.761-1.573,4.151-2.362C9.078,4.779,7.708,4,6.325,3.213Z" transform="translate(920 40)"/>
  </g>
</svg>
